<?xml version="1.0" standalone="no"?>
<!DOCTYPE svg PUBLIC "-//W3C//DTD SVG 20010904//EN"
 "http://www.w3.org/TR/2001/REC-SVG-20010904/DTD/svg10.dtd">
<svg version="1.0" xmlns="http://www.w3.org/2000/svg"
 width="300.000000pt" height="300.000000pt" viewBox="0 0 300.000000 300.000000"
 preserveAspectRatio="xMidYMid meet">
<metadata>
Created by potrace 1.11, written by Peter Selinger 2001-2013
</metadata>
<g transform="translate(0.000000,300.000000) scale(0.100000,-0.100000)"
fill="#000000" stroke="none">
<path d="M1768 2352 c-39 -26 -36 -21 -152 -317 -33 -85 -50 -130 -117 -305
-16 -41 -29 -78 -29 -82 0 -5 104 -8 230 -8 127 0 230 -2 230 -5 0 -5 -299
-353 -618 -717 -154 -177 -164 -191 -172 -240 -7 -47 -6 -70 3 -57 2 2 51 58
109 125 l106 120 114 -4 c201 -7 360 48 499 177 153 140 230 382 185 576 -44
185 -185 369 -339 440 -41 19 -80 35 -86 35 -16 0 -15 4 34 144 25 71 44 132
43 135 -2 4 -20 -4 -40 -17z"/>
<path d="M1362 2119 c-71 -12 -189 -62 -263 -111 -110 -74 -196 -195 -240
-338 -34 -109 -32 -254 5 -366 49 -151 160 -288 291 -358 30 -17 56 -28 58
-25 4 4 37 63 198 357 44 78 79 147 79 152 0 6 -81 11 -195 12 l-194 3 102
147 c129 186 326 473 350 510 l19 28 -79 -1 c-43 -1 -102 -5 -131 -10z"/>
</g>
</svg>
